<?xml version="1.0" standalone="no"?>
<!DOCTYPE svg PUBLIC "-//W3C//DTD SVG 1.1//EN" "http://www.w3.org/Graphics/SVG/1.1/DTD/svg11.dtd">
<svg xmlns="http://www.w3.org/2000/svg" xmlns:xlink="http://www.w3.org/1999/xlink" width="375" zoomAndPan="magnify" viewBox="0 0 375 374.999991" height="375" preserveAspectRatio="xMidYMid meet" version="1.0"><defs><g/></defs><g fill="#dc0019" fill-opacity="1"><g transform="translate(30.663362, 204.283022)"><g><path d="M 34.15625 -32.4375 L 30.484375 -32.4375 L 30.484375 -19.703125 C 29.160156 -20.484375 27.257812 -21.15625 24.78125 -21.71875 C 22.445312 -22.25 20.425781 -22.515625 18.71875 -22.515625 C 14.625 -22.515625 11.1875 -21.789062 8.40625 -20.34375 C 6.832031 -19.507812 6.046875 -18.421875 6.046875 -17.078125 C 6.046875 -15.285156 6.988281 -14.390625 8.875 -14.390625 C 10.019531 -14.390625 11.507812 -14.722656 13.34375 -15.390625 C 14.53125 -15.816406 16.054688 -16.359375 17.921875 -17.015625 C 18.703125 -17.273438 20.085938 -17.40625 22.078125 -17.40625 C 25.960938 -17.40625 28.859375 -16.207031 30.765625 -13.8125 C 31.679688 -12.664062 32.140625 -11.320312 32.140625 -9.78125 C 32.140625 -6.21875 29.894531 -3.414062 25.40625 -1.375 C 23.550781 -0.519531 21.785156 -0.0390625 20.109375 0.0625 C 21.710938 1.675781 23.242188 2.484375 24.703125 2.484375 C 25.171875 2.484375 25.675781 2.414062 26.21875 2.28125 L 29.609375 7.828125 C 28.921875 8.429688 27.5 8.734375 25.34375 8.734375 C 23.59375 8.734375 22.113281 8.140625 20.90625 6.953125 C 20.257812 6.304688 19.34375 4.953125 18.15625 2.890625 C 17.144531 1.117188 16.300781 0.222656 15.625 0.203125 C 11.476562 0.0859375 8.285156 -0.660156 6.046875 -2.046875 C 4.640625 -2.921875 3.9375 -4.117188 3.9375 -5.640625 C 3.9375 -7.523438 5.054688 -8.46875 7.296875 -8.46875 C 8.117188 -8.46875 9.847656 -7.820312 12.484375 -6.53125 C 15.117188 -5.25 17.289062 -4.609375 19 -4.609375 C 22.40625 -4.609375 25.597656 -5.414062 28.578125 -7.03125 C 30.035156 -7.8125 30.765625 -8.773438 30.765625 -9.921875 C 30.765625 -11.617188 29.414062 -12.46875 26.71875 -12.46875 C 25.894531 -12.46875 23.21875 -11.863281 18.6875 -10.65625 C 16.019531 -9.9375 14.382812 -9.578125 13.78125 -9.578125 C 10.21875 -9.578125 7.28125 -11.257812 4.96875 -14.625 C 3.851562 -16.238281 3.296875 -17.972656 3.296875 -19.828125 C 3.273438 -23.617188 5.863281 -26.175781 11.0625 -27.5 C 13.1875 -28.03125 15.191406 -28.296875 17.078125 -28.296875 C 19.222656 -28.296875 22.269531 -27.769531 26.21875 -26.71875 L 26.21875 -32.4375 L -0.53125 -32.4375 L -0.53125 -36.46875 L 34.15625 -36.46875 Z M 34.15625 -32.4375 "/></g></g></g><g fill="#dc0019" fill-opacity="1"><g transform="translate(64.481633, 204.283022)"><g><path d="M 32.84375 -32.4375 L 10.453125 -32.4375 L 10.453125 -27.0625 C 10.546875 -27.0625 10.632812 -27.015625 10.71875 -26.921875 C 10.8125 -26.835938 10.890625 -26.796875 10.953125 -26.796875 C 10.773438 -26.796875 10.675781 -26.804688 10.65625 -26.828125 C 10.65625 -26.941406 12.328125 -27.300781 15.671875 -27.90625 C 16.898438 -28.125 18.117188 -28.234375 19.328125 -28.234375 C 24.367188 -28.234375 27.609375 -26.820312 29.046875 -24 C 30.003906 -22.113281 30.484375 -18.316406 30.484375 -12.609375 L 30.484375 0.34375 C 30.015625 0.15625 28.234375 -0.570312 25.140625 -1.84375 C 25.140625 -2.5625 24.992188 -3.023438 24.703125 -3.234375 C 23.515625 -2.535156 22.539062 -2.003906 21.78125 -1.640625 C 19.363281 -0.503906 16.550781 0.0625 13.34375 0.0625 C 8.925781 0.0625 5.519531 -1.320312 3.125 -4.09375 C 1.957031 -5.445312 1.375 -6.953125 1.375 -8.609375 C 1.375 -10.460938 2.296875 -12.3125 4.140625 -14.15625 C 7.703125 -17.71875 12.125 -19.5 17.40625 -19.5 C 20.613281 -19.5 23.191406 -18.757812 25.140625 -17.28125 L 25.140625 -20.375 C 24.160156 -21.625 23.203125 -22.460938 22.265625 -22.890625 C 21.335938 -23.316406 20.066406 -23.507812 18.453125 -23.46875 C 14.847656 -23.394531 11.539062 -22.734375 8.53125 -21.484375 C 7.1875 -20.921875 5.878906 -20.414062 4.609375 -19.96875 L 4.609375 -22.453125 C 4.898438 -22.703125 5.320312 -23.070312 5.875 -23.5625 C 5.96875 -23.675781 6.023438 -23.742188 6.046875 -23.765625 L 6.046875 -32.4375 L -0.84375 -32.4375 L -0.84375 -36.46875 L 32.84375 -36.46875 Z M 25.140625 -11.15625 C 25.140625 -12.144531 23.960938 -13.03125 21.609375 -13.8125 C 19.660156 -14.46875 18.035156 -14.796875 16.734375 -14.796875 C 12.003906 -14.796875 8.21875 -13.09375 5.375 -9.6875 C 4.226562 -8.3125 3.65625 -7.1875 3.65625 -6.3125 C 4.132812 -4.675781 5.984375 -3.859375 9.203125 -3.859375 C 13.378906 -3.859375 17.191406 -4.898438 20.640625 -6.984375 C 23.640625 -8.804688 25.140625 -10.195312 25.140625 -11.15625 Z M 25.140625 -11.15625 "/></g></g></g><g fill="#dc0019" fill-opacity="1"><g transform="translate(97.190567, 204.283022)"><g><path d="M 51.234375 -32.4375 L 40.140625 -32.4375 L 40.203125 -27.734375 C 43.253906 -26.609375 45.453125 -25.140625 46.796875 -23.328125 C 48.179688 -21.441406 48.875 -18.898438 48.875 -15.703125 C 48.875 -11.085938 47.023438 -7.117188 43.328125 -3.796875 C 42.628906 -3.171875 41.566406 -2.351562 40.140625 -1.34375 C 38.367188 -0.09375 37.25 0.53125 36.78125 0.53125 C 36.300781 0.53125 34.132812 -1.4375 30.28125 -5.375 C 32.65625 -5.507812 35.132812 -6.273438 37.71875 -7.671875 C 40.15625 -8.960938 42.226562 -10.550781 43.9375 -12.4375 C 45.769531 -14.457031 46.6875 -16.597656 46.6875 -18.859375 C 46.6875 -21.097656 45.441406 -22.65625 42.953125 -23.53125 C 41.742188 -23.957031 40.546875 -24.148438 39.359375 -24.109375 C 32.097656 -23.816406 27.648438 -19.585938 26.015625 -11.421875 L 19.125 -14.25 C 19.125 -16.132812 19.851562 -18.242188 21.3125 -20.578125 C 21.851562 -21.421875 22.132812 -21.898438 22.15625 -22.015625 C 22.15625 -23.066406 20.640625 -23.59375 17.609375 -23.59375 C 13.734375 -23.59375 10.722656 -21.890625 8.578125 -18.484375 C 7.628906 -16.984375 7.15625 -15.484375 7.15625 -13.984375 C 7.15625 -10.847656 8.601562 -7.878906 11.5 -5.078125 L 17.890625 1.109375 C 13.984375 -0.234375 10.363281 -2.179688 7.03125 -4.734375 C 2.570312 -8.140625 0.34375 -11.796875 0.34375 -15.703125 C 0.34375 -20.628906 2.828125 -24.300781 7.796875 -26.71875 C 9.972656 -27.769531 12.210938 -28.296875 14.515625 -28.296875 C 17.472656 -28.296875 20.429688 -27.410156 23.390625 -25.640625 C 24.515625 -24.972656 25.164062 -24.617188 25.34375 -24.578125 C 27.050781 -25.316406 28.921875 -26.109375 30.953125 -26.953125 C 32.035156 -27.398438 33.125 -27.703125 34.21875 -27.859375 L 34.28125 -32.4375 L -0.671875 -32.4375 L -0.671875 -36.46875 L 51.234375 -36.46875 Z M 51.234375 -32.4375 "/></g></g></g><g fill="#dc0019" fill-opacity="1"><g transform="translate(147.985216, 204.283022)"><g><path d="M 33.65625 -32.4375 L -0.34375 -32.4375 L -0.34375 -36.46875 L 33.65625 -36.46875 Z M 30.859375 -20.375 C 30.859375 -19.050781 30.0625 -17.5625 28.46875 -15.90625 C 27.125 -14.488281 25.710938 -13.429688 24.234375 -12.734375 L 19.1875 -18.453125 C 20.71875 -18.585938 22.164062 -19.148438 23.53125 -20.140625 C 25.101562 -21.253906 25.890625 -22.53125 25.890625 -23.96875 C 25.890625 -24.726562 25.394531 -25.378906 24.40625 -25.921875 C 23.550781 -26.410156 22.710938 -26.65625 21.890625 -26.65625 C 20.160156 -26.65625 18.3125 -25.828125 16.34375 -24.171875 C 12.320312 -20.804688 10.3125 -17.085938 10.3125 -13.015625 L 10.3125 1.25 L 3.859375 -2.125 L 3.859375 -27 L 10.390625 -27 L 10.390625 -24.4375 C 11.347656 -25.40625 13.34375 -26.414062 16.375 -27.46875 C 17.851562 -27.976562 19.375 -28.234375 20.9375 -28.234375 C 24.1875 -28.234375 26.945312 -26.988281 29.21875 -24.5 C 30.3125 -23.289062 30.859375 -21.914062 30.859375 -20.375 Z M 30.859375 -20.375 "/></g></g></g><g fill="#dc0019" fill-opacity="1"><g transform="translate(181.030316, 204.283022)"><g><path d="M 37.65625 -32.4375 L 9.515625 -32.4375 L 9.515625 -10.890625 C 9.515625 -9.453125 9.816406 -7.972656 10.421875 -6.453125 C 11.648438 -3.335938 13.6875 -1.78125 16.53125 -1.78125 C 20.363281 -1.78125 23.28125 -3.382812 25.28125 -6.59375 C 26.820312 -9.050781 27.59375 -11.367188 27.59375 -13.546875 L 27.59375 -26.921875 L 34.421875 -26.921875 L 34.421875 1.71875 C 33.878906 1.40625 32.867188 0.921875 31.390625 0.265625 L 27.53125 -1.453125 L 27.53125 -4.140625 C 24.882812 -2.210938 22.617188 -0.988281 20.734375 -0.46875 C 19.597656 -0.15625 18.242188 0 16.671875 0 C 11.691406 0 7.804688 -2.1875 5.015625 -6.5625 C 3.734375 -8.550781 3.09375 -10.722656 3.09375 -13.078125 L 3.09375 -32.4375 L -0.96875 -32.4375 L -0.96875 -36.46875 L 37.65625 -36.46875 Z M 37.65625 -32.4375 "/></g></g></g><g fill="#dc0019" fill-opacity="1"><g transform="translate(218.411943, 204.283022)"><g><path d="M 38.6875 -32.4375 L 34.28125 -32.4375 L 34.21875 0.40625 L 28.109375 -2.21875 L 28.109375 -7.03125 C 24.472656 -2.34375 20.90625 0 17.40625 0 C 15.1875 0 12.769531 -0.929688 10.15625 -2.796875 C 7.914062 -4.378906 6.054688 -6.238281 4.578125 -8.375 C 2.828125 -10.882812 1.960938 -13.328125 1.984375 -15.703125 C 2.003906 -17.867188 3.203125 -20.390625 5.578125 -23.265625 C 8.242188 -26.492188 11.460938 -28.109375 15.234375 -28.109375 C 17.628906 -28.109375 20.035156 -27.085938 22.453125 -25.046875 C 23.191406 -24.441406 25.078125 -22.488281 28.109375 -19.1875 L 28.109375 -32.4375 L -0.671875 -32.4375 L -0.671875 -36.46875 L 28.109375 -36.46875 C 28.109375 -41.113281 27.710938 -44.742188 26.921875 -47.359375 C 25.753906 -51.265625 23.15625 -55.90625 19.125 -61.28125 C 19.039062 -61.320312 19 -61.5 19 -61.8125 C 19 -62.082031 19.0625 -62.265625 19.1875 -62.359375 L 25.609375 -62.359375 C 31.390625 -55.972656 34.28125 -47.34375 34.28125 -36.46875 L 38.6875 -36.46875 Z M 26.484375 -17.140625 C 26.484375 -18.890625 25.53125 -20.390625 23.625 -21.640625 C 21.925781 -22.765625 20.15625 -23.328125 18.3125 -23.328125 C 16.96875 -23.328125 15.289062 -22.703125 13.28125 -21.453125 C 8.882812 -18.710938 6.6875 -15.484375 6.6875 -11.765625 C 6.6875 -9.722656 7.238281 -7.953125 8.34375 -6.453125 C 9.550781 -4.773438 11.128906 -3.9375 13.078125 -3.9375 C 15.097656 -3.9375 17.25 -4.851562 19.53125 -6.6875 C 21.125 -7.96875 22.601562 -9.535156 23.96875 -11.390625 C 25.644531 -13.679688 26.484375 -15.597656 26.484375 -17.140625 Z M 26.484375 -17.140625 "/></g></g></g><g fill="#dc0019" fill-opacity="1"><g transform="translate(256.566761, 204.283022)"><g><path d="M 38.6875 -32.4375 L 34.28125 -32.4375 L 34.21875 0.40625 L 28.109375 -2.21875 L 28.109375 -7.03125 C 24.472656 -2.34375 20.90625 0 17.40625 0 C 15.1875 0 12.769531 -0.929688 10.15625 -2.796875 C 7.914062 -4.378906 6.054688 -6.238281 4.578125 -8.375 C 2.828125 -10.882812 1.960938 -13.328125 1.984375 -15.703125 C 2.003906 -17.867188 3.203125 -20.390625 5.578125 -23.265625 C 8.242188 -26.492188 11.460938 -28.109375 15.234375 -28.109375 C 17.628906 -28.109375 20.035156 -27.085938 22.453125 -25.046875 C 23.191406 -24.441406 25.078125 -22.488281 28.109375 -19.1875 L 28.109375 -32.4375 L -0.671875 -32.4375 L -0.671875 -36.46875 L 28.109375 -36.46875 C 28.109375 -41.113281 27.710938 -44.742188 26.921875 -47.359375 C 25.753906 -51.265625 23.15625 -55.90625 19.125 -61.28125 C 19.039062 -61.320312 19 -61.5 19 -61.8125 C 19 -62.082031 19.0625 -62.265625 19.1875 -62.359375 L 25.609375 -62.359375 C 31.390625 -55.972656 34.28125 -47.34375 34.28125 -36.46875 L 38.6875 -36.46875 Z M 26.484375 -17.140625 C 26.484375 -18.890625 25.53125 -20.390625 23.625 -21.640625 C 21.925781 -22.765625 20.15625 -23.328125 18.3125 -23.328125 C 16.96875 -23.328125 15.289062 -22.703125 13.28125 -21.453125 C 8.882812 -18.710938 6.6875 -15.484375 6.6875 -11.765625 C 6.6875 -9.722656 7.238281 -7.953125 8.34375 -6.453125 C 9.550781 -4.773438 11.128906 -3.9375 13.078125 -3.9375 C 15.097656 -3.9375 17.25 -4.851562 19.53125 -6.6875 C 21.125 -7.96875 22.601562 -9.535156 23.96875 -11.390625 C 25.644531 -13.679688 26.484375 -15.597656 26.484375 -17.140625 Z M 26.484375 -17.140625 "/></g></g></g><g fill="#dc0019" fill-opacity="1"><g transform="translate(294.72158, 204.283022)"><g><path d="M 36.90625 -32.4375 L 9.78125 -32.4375 L 9.78125 -22.328125 C 12.226562 -24.992188 14.492188 -26.707031 16.578125 -27.46875 C 17.734375 -27.894531 19.039062 -28.109375 20.5 -28.109375 C 25.96875 -28.109375 30.0625 -25.414062 32.78125 -20.03125 C 33.96875 -17.675781 34.5625 -15.359375 34.5625 -13.078125 C 34.5625 -8.910156 32.84375 -5.144531 29.40625 -1.78125 C 28.269531 -0.65625 27.421875 0.113281 26.859375 0.53125 L 21.34375 -2.75 C 22.738281 -4.207031 24.316406 -6.003906 26.078125 -8.140625 C 28.078125 -10.535156 29.085938 -13.5625 29.109375 -17.21875 C 29.128906 -19.382812 28.632812 -21.195312 27.625 -22.65625 C 26.488281 -24.363281 24.878906 -25.191406 22.796875 -25.140625 C 20.867188 -25.097656 18.804688 -24.367188 16.609375 -22.953125 C 14.628906 -21.703125 12.992188 -20.203125 11.703125 -18.453125 C 10.285156 -16.566406 9.578125 -14.753906 9.578125 -13.015625 L 9.578125 0.34375 L 3.296875 -3.03125 L 3.296875 -32.4375 L -0.40625 -32.4375 L -0.40625 -36.46875 L 3.296875 -36.46875 C 3.296875 -43.0625 1.582031 -48.6875 -1.84375 -53.34375 C -3.90625 -56.144531 -5.8125 -58.117188 -7.5625 -59.265625 L -0.765625 -59.328125 C 2.992188 -57.265625 5.984375 -52.816406 8.203125 -45.984375 C 9.253906 -42.734375 9.78125 -39.5625 9.78125 -36.46875 L 36.90625 -36.46875 Z M 36.90625 -32.4375 "/></g></g></g><g fill="#dc0019" fill-opacity="1"><g transform="translate(331.262803, 204.283022)"><g><path d="M 11.359375 -40 C 11.273438 -39.914062 11.019531 -39.875 10.59375 -39.875 C 10.226562 -39.875 9.910156 -39.914062 9.640625 -40 L 7.46875 -44.46875 C 6.570312 -45.882812 5.351562 -46.84375 3.8125 -47.34375 C 2.28125 -47.851562 1.332031 -48.410156 0.96875 -49.015625 C 0.632812 -50.046875 -0.0078125 -51.625 -0.96875 -53.75 L -0.96875 -54.53125 L 0.34375 -54.53125 C 2.0625 -53.988281 3.457031 -53.484375 4.53125 -53.015625 C 6.300781 -52.222656 7.488281 -51.3125 8.09375 -50.28125 C 8.4375 -49.726562 8.953125 -48.296875 9.640625 -45.984375 C 10.296875 -43.804688 10.847656 -42.296875 11.296875 -41.453125 C 11.335938 -41.046875 11.359375 -40.5625 11.359375 -40 Z M 13.34375 -32.4375 L -0.34375 -32.4375 L -0.34375 -36.46875 L 13.34375 -36.46875 Z M 9.515625 0.765625 L 3.859375 -2.359375 L 3.859375 -28.296875 L 9.515625 -28.296875 Z M 9.515625 0.765625 "/></g></g></g></svg>